<?xml version="1.0" encoding="UTF-8"?>
<svg width="1446px" height="718px" viewBox="0 0 1446 718" version="1.1" xmlns="http://www.w3.org/2000/svg" xmlns:xlink="http://www.w3.org/1999/xlink">
    <!-- Generator: Sketch 46 (44423) - http://www.bohemiancoding.com/sketch -->
    <title>Black</title>
    <desc>Created with Sketch.</desc>
    <defs></defs>
    <g id="Merch-&amp;-Logos" stroke="none" stroke-width="1" fill="none" fill-rule="evenodd">
        <g id="Artboard-Copy" transform="translate(-125.000000, -1975.000000)" fill="#000000">
            <g id="Black" transform="translate(125.000000, 1975.000000)">
                <path d="M1399.06956,402.048504 C1423.72826,412.881933 1446,435.013107 1446,479.618254 C1446,555.571328 1334.26544,555.534428 1334.26544,555.534428 C1333.16624,555.560496 1331.37434,555.571328 1330.27279,555.571328 L1196.73575,555.571328 L1196.73575,404.678933 L1196.73575,258.058526 L1330.27279,258.058526 C1331.37434,258.058526 1333.15846,258.034114 1334.25725,258.019822 C1334.25725,258.019822 1435.34768,253.714218 1435.34768,334.083917 C1435.34768,370.131178 1418.78596,390.532759 1399.06956,402.048504 Z M1250.18482,308.018073 L1250.18482,375.354853 L1318.29847,375.354853 C1319.41609,375.354853 1321.19166,375.336118 1322.28831,375.313008 C1322.28831,375.313008 1382.08609,375.354854 1382.08609,341.597403 C1382.08609,308.018073 1326.56033,308.065018 1326.56033,308.065018 C1325.46711,308.031801 1323.66424,308.018073 1322.55487,308.018073 L1250.18482,308.018073 Z M1250.18482,505.611781 L1318.29847,505.611781 C1319.40534,505.611781 1321.19156,505.600342 1322.29349,505.572028 C1322.29349,505.572028 1390.60795,505.611781 1390.60795,466.549167 C1390.60795,427.486552 1322.29349,427.526305 1322.29349,427.526305 C1321.19398,427.50435 1319.41609,427.486552 1318.29847,427.486552 L1250.18482,427.486552 L1250.18482,505.611781 Z M892.079445,258.058526 L1041.34658,258.058526 C1042.44882,258.058526 1044.23504,258.178476 1045.31498,258.345525 C1045.31498,258.345525 1158.3874,271.091506 1158.3874,406.851078 C1158.3874,540.438569 1045.29092,555.324775 1045.29092,555.324775 C1044.21476,555.500884 1042.45406,555.643649 1041.34658,555.643649 L892.079445,555.643649 L892.079445,258.058526 Z M951.732428,308.793397 L951.732428,500.912581 L1028.55176,500.912588 C1029.66074,500.912588 1031.42702,500.726834 1032.49707,500.497693 C1032.49707,500.497693 1102.99535,488.306862 1102.99535,404.852993 C1102.99535,323.223152 1032.49707,309.255381 1032.49707,309.255381 C1031.42353,308.987358 1029.66065,308.793397 1028.55176,308.793397 L951.732428,308.793397 Z M544.5136,258.058526 L596.702811,258.058526 L685.424469,389.846223 L774.146127,258.058526 L826.335338,258.058526 L840.948317,555.643649 L792.934243,555.643649 L780.408833,338.831631 L690.64339,466.368112 L676.030411,466.368112 L588.352537,338.831631 L577.914695,555.643649 L529.900621,555.643649 L544.5136,258.058526 Z" id="Combined-Shape"></path>
                <g id="Group-4">
                    <g id="Gradient">
                        <path d="M394.969191,376.280177 C390.323972,377.672478 385.606596,379.44556 380.849219,381.614971 C378.309884,382.772934 375.784101,384.029593 373.294053,385.37822 L373.294053,361.477551 C380.993087,356.656538 388.331799,350.795112 394.969191,344.087569 L394.969191,376.280177 Z M394.969191,501.439347 L394.969191,701.701641 C394.969191,710.536215 387.797894,717.698051 378.965944,717.698051 L16.0032473,717.698051 C7.16489789,717.698051 0,710.536637 0,701.701641 L0,15.9964099 C0,7.16183667 7.17129707,0 16.0032473,0 L378.965944,0 C387.804293,0 394.969191,7.1614141 394.969191,15.9964099 L394.969191,223.215424 C393.252487,222.649875 391.504733,222.156764 389.729,221.736733 C384.469539,220.492661 378.964626,219.889683 373.294053,219.944477 L373.294053,69.7761994 L26.491836,69.7761994 L26.491836,635.461816 L373.294053,635.461816 L373.294053,502.168678 C380.183922,502.893064 387.51852,502.632873 394.969191,501.439348 Z M198.68877,700.254001 C211.324666,700.254001 221.568083,689.65476 221.568083,676.579934 C221.568083,663.505107 211.324666,652.905866 198.68877,652.905866 C186.052874,652.905866 175.809457,663.505107 175.809457,676.579934 C175.809457,689.65476 186.052874,700.254001 198.68877,700.254001 Z M133.663354,44.8561282 C136.98859,44.8561282 139.684226,42.0668542 139.684226,38.6261104 C139.684226,35.1853666 136.98859,32.3960926 133.663354,32.3960926 C130.338119,32.3960926 127.642482,35.1853666 127.642482,38.6261104 C127.642482,42.0668542 130.338119,44.8561282 133.663354,44.8561282 Z M149.317621,36.3830162 L149.317621,40.8692047 C149.317621,41.7006741 149.986365,42.3641211 150.811303,42.3641211 L273.058073,42.3641211 C273.877961,42.3641211 274.551755,41.6948242 274.551755,40.8692047 L274.551755,36.3830162 C274.551755,35.5515467 273.883011,34.8880997 273.058073,34.8880997 L150.811303,34.8880997 C149.991415,34.8880997 149.317621,35.5573966 149.317621,36.3830162 Z" id="Combined-Shape"></path>
                        <path d="M36.1252309,558.209595 L36.1252309,425.534127 C37.1191092,425.534127 50.156996,416.258141 72.2504611,406.197161 C91.1447913,397.593012 118.810522,388.698444 126.756859,381.391011 C153.065193,357.197926 187.268044,343.896983 213.138862,343.896983 C261.687303,343.896983 301.043591,406.934575 301.043591,484.695385 C301.043591,536.405427 342.814457,571.79438 327.535424,605.557731 C324.623668,611.992079 318.242853,623.207249 308.268634,623.207249 L194.11128,623.207244 C194.11128,623.207244 161.054445,596.727581 142.092571,588.113681 C93.2994075,565.948181 61.0387362,558.209595 36.1252309,558.209595 Z M197.484596,311.50089 C142.092574,304.024863 139.829848,262.871983 144.500924,221.788637 C149.317621,179.424511 172.73616,150.95767 202.301293,144.536414 C204.98502,143.953534 168.493062,103.186282 170.99276,104.664299 C187.851201,114.632328 233.609826,132.076371 252.876616,186.900532 C272.143406,241.724694 252.876617,318.976917 197.484596,311.50089 Z M287.395428,351.956229 C248.227358,312.788151 281.013195,276.802336 313.366457,251.054973 C346.728337,224.504932 383.416841,220.935243 408.863061,237.300435 C411.1729,238.785959 414.19599,184.155447 414.918427,186.968117 C419.790685,205.937295 439.812118,250.628331 414.669259,303.018545 C389.526401,355.408759 326.563498,391.124308 287.395428,351.956229 Z M337.360437,469.4156 C312.351432,427.793644 347.869949,404.137893 380.849219,389.099012 C414.856624,373.591292 446.820073,378.335628 464.993443,397.651943 C466.643101,399.40535 480.800117,353.578982 480.818116,356.124585 C480.939501,373.292614 488.491529,415.551803 455.995042,454.781623 C423.498554,494.011443 362.369442,511.037555 337.360437,469.4156 Z M39.158734,345.290588 L34.7498547,224.626706 C34.7498547,224.626706 61.0735618,222.546455 76.3275052,232.695377 C118.739228,260.913213 145.298891,311.803043 103.032006,343.654851 C71.0582001,367.749921 39.158734,345.290588 39.158734,345.290588 Z" id="paw-copy"></path>
                    </g>
                </g>
            </g>
        </g>
    </g>
</svg>